<mxfile host="app.diagrams.net" modified="2024-04-04T05:59:27.817Z" agent="Mozilla/5.0 (Windows NT 10.0; Win64; x64; rv:124.0) Gecko/20100101 Firefox/124.0" etag="3RUV2wjdyWfsWTVZS0Ys" version="24.2.1" type="device">
  <diagram name="Lapa-1" id="GogE1p4pCxu8u_492rkK">
    <mxGraphModel dx="1062" dy="616" grid="1" gridSize="10" guides="1" tooltips="1" connect="1" arrows="1" fold="1" page="1" pageScale="1" pageWidth="850" pageHeight="1100" math="0" shadow="0">
      <root>
        <mxCell id="0" />
        <mxCell id="1" parent="0" />
        <mxCell id="B00GC951UCN3_ax1-Aoc-1" value="Datubāze (Internetveikals)" style="rounded=0;whiteSpace=wrap;html=1;verticalAlign=top;" vertex="1" parent="1">
          <mxGeometry x="40" y="10" width="750" height="640" as="geometry" />
        </mxCell>
        <mxCell id="B00GC951UCN3_ax1-Aoc-2" value="&lt;div&gt;Tabula 1 (Lietotājs)&lt;/div&gt;" style="rounded=0;whiteSpace=wrap;html=1;verticalAlign=top;" vertex="1" parent="1">
          <mxGeometry x="50" y="60" width="310" height="570" as="geometry" />
        </mxCell>
        <mxCell id="B00GC951UCN3_ax1-Aoc-3" value="Tabula 2 (Prece)" style="rounded=0;whiteSpace=wrap;html=1;verticalAlign=top;" vertex="1" parent="1">
          <mxGeometry x="450" y="60" width="310" height="570" as="geometry" />
        </mxCell>
        <mxCell id="B00GC951UCN3_ax1-Aoc-4" value="Lietotājvārds" style="rounded=0;whiteSpace=wrap;html=1;" vertex="1" parent="1">
          <mxGeometry x="110" y="110" width="80" height="30" as="geometry" />
        </mxCell>
        <mxCell id="B00GC951UCN3_ax1-Aoc-5" value="ID" style="rounded=0;whiteSpace=wrap;html=1;" vertex="1" parent="1">
          <mxGeometry x="50" y="110" width="60" height="30" as="geometry" />
        </mxCell>
        <mxCell id="B00GC951UCN3_ax1-Aoc-6" value="Parole" style="rounded=0;whiteSpace=wrap;html=1;" vertex="1" parent="1">
          <mxGeometry x="190" y="110" width="80" height="30" as="geometry" />
        </mxCell>
        <mxCell id="B00GC951UCN3_ax1-Aoc-7" value="E-pasts" style="rounded=0;whiteSpace=wrap;html=1;" vertex="1" parent="1">
          <mxGeometry x="270" y="110" width="90" height="30" as="geometry" />
        </mxCell>
        <mxCell id="B00GC951UCN3_ax1-Aoc-8" value="Nosaukums" style="rounded=0;whiteSpace=wrap;html=1;" vertex="1" parent="1">
          <mxGeometry x="510" y="110" width="80" height="30" as="geometry" />
        </mxCell>
        <mxCell id="B00GC951UCN3_ax1-Aoc-9" value="ID" style="rounded=0;whiteSpace=wrap;html=1;" vertex="1" parent="1">
          <mxGeometry x="450" y="110" width="60" height="30" as="geometry" />
        </mxCell>
        <mxCell id="B00GC951UCN3_ax1-Aoc-10" value="Cena" style="rounded=0;whiteSpace=wrap;html=1;" vertex="1" parent="1">
          <mxGeometry x="590" y="110" width="80" height="30" as="geometry" />
        </mxCell>
        <mxCell id="B00GC951UCN3_ax1-Aoc-11" value="Apraksts" style="rounded=0;whiteSpace=wrap;html=1;" vertex="1" parent="1">
          <mxGeometry x="670" y="110" width="90" height="30" as="geometry" />
        </mxCell>
        <mxCell id="B00GC951UCN3_ax1-Aoc-12" value="1 | Lietotajs | ***** | mail@mail.com" style="rounded=0;whiteSpace=wrap;html=1;" vertex="1" parent="1">
          <mxGeometry x="50" y="150" width="310" height="30" as="geometry" />
        </mxCell>
        <mxCell id="B00GC951UCN3_ax1-Aoc-13" value="2 | Cilveks | ******* | a@gmail.com" style="rounded=0;whiteSpace=wrap;html=1;" vertex="1" parent="1">
          <mxGeometry x="50" y="180" width="310" height="30" as="geometry" />
        </mxCell>
        <mxCell id="B00GC951UCN3_ax1-Aoc-14" value="...." style="rounded=0;whiteSpace=wrap;html=1;" vertex="1" parent="1">
          <mxGeometry x="50" y="210" width="310" height="30" as="geometry" />
        </mxCell>
        <mxCell id="B00GC951UCN3_ax1-Aoc-15" value="Lietotajs" style="swimlane;fontStyle=0;childLayout=stackLayout;horizontal=1;startSize=30;horizontalStack=0;resizeParent=1;resizeParentMax=0;resizeLast=0;collapsible=1;marginBottom=0;whiteSpace=wrap;html=1;" vertex="1" parent="1">
          <mxGeometry x="40" y="680" width="140" height="120" as="geometry" />
        </mxCell>
        <mxCell id="B00GC951UCN3_ax1-Aoc-16" value="ID: Integer" style="text;strokeColor=none;fillColor=none;align=left;verticalAlign=middle;spacingLeft=4;spacingRight=4;overflow=hidden;points=[[0,0.5],[1,0.5]];portConstraint=eastwest;rotatable=0;whiteSpace=wrap;html=1;" vertex="1" parent="B00GC951UCN3_ax1-Aoc-15">
          <mxGeometry y="30" width="140" height="30" as="geometry" />
        </mxCell>
        <mxCell id="B00GC951UCN3_ax1-Aoc-17" value="Lietotājvārds :String" style="text;strokeColor=none;fillColor=none;align=left;verticalAlign=middle;spacingLeft=4;spacingRight=4;overflow=hidden;points=[[0,0.5],[1,0.5]];portConstraint=eastwest;rotatable=0;whiteSpace=wrap;html=1;" vertex="1" parent="B00GC951UCN3_ax1-Aoc-15">
          <mxGeometry y="60" width="140" height="30" as="geometry" />
        </mxCell>
        <mxCell id="B00GC951UCN3_ax1-Aoc-18" value="..." style="text;strokeColor=none;fillColor=none;align=left;verticalAlign=middle;spacingLeft=4;spacingRight=4;overflow=hidden;points=[[0,0.5],[1,0.5]];portConstraint=eastwest;rotatable=0;whiteSpace=wrap;html=1;" vertex="1" parent="B00GC951UCN3_ax1-Aoc-15">
          <mxGeometry y="90" width="140" height="30" as="geometry" />
        </mxCell>
      </root>
    </mxGraphModel>
  </diagram>
</mxfile>
